# xmcd
#
# Track frame offsets:
#	150
#	13015
#	27305
#	39674
#	53467
#	66941
#	79258
#	91661
#	103479
#	114252
#	127030
#	142172
#	156778
#	170050
#
# Disc length: 2449 seconds
#
# Revision: 0
# Processed by: cddbd v1.5.2PL0 Copyright (c) Steve Scherf et al.
# Submitted via: EZCDAudioConverter 3.0.3.2
#
DISCID=be098f0e
DTITLE=Henrique e Juliano - Henrique e Juliano – Ao Vivo Em Brasília 2014
DYEAR=2014
DGENRE=Sertanejo
TTITLE0=Gordinho Saliente
TTITLE1=Até Você Voltar
TTITLE2=Céu Particular
TTITLE3=Eu Me Enrosquei de Novo
TTITLE4=Faz Tempo
TTITLE5=Pra Que Juízo
TTITLE6=Quem Ama Sempre Entende
TTITLE7=Jesus Apaga a Luz
TTITLE8=Sereia
TTITLE9=Às Vezes
TTITLE10=Cuida Bem Dela
TTITLE11=Mudando de Assunto
TTITLE12=Estrelas Cadentes
TTITLE13=Fake
EXTD=
EXTT0=
EXTT1=
EXTT2=
EXTT3=
EXTT4=
EXTT5=
EXTT6=
EXTT7=
EXTT8=
EXTT9=
EXTT10=
EXTT11=
EXTT12=
EXTT13=
PLAYORDER=
